HIERARCHY
ROOT hip
{
  OFFSET 0 0 0
  CHANNELS 6 Xposition Yposition Zposition Zrotation Yrotation Xrotation
  JOINT abdomen
  {
    OFFSET 0 20.6881 -0.73152
    CHANNELS 3 Zrotation Xrotation Yrotation
    JOINT chest
    {
      OFFSET 0 11.7043 -0.48768
      CHANNELS 3 Zrotation Xrotation Yrotation
      JOINT neck
      {
        OFFSET 0 22.1894 -2.19456
        CHANNELS 3 Zrotation Xrotation Yrotation
        JOINT head
        {
          OFFSET -0.24384 7.07133 1.2192
          CHANNELS 3 Zrotation Xrotation Yrotation
          JOINT leftEye
          {
            OFFSET 4.14528 8.04674 8.04672
            CHANNELS 3 Zrotation Xrotation Yrotation
            End Site
            {
              OFFSET 1 0 0
            }
          }
          JOINT rightEye
          {
            OFFSET -3.6576 8.04674 8.04672
            CHANNELS 3 Zrotation Xrotation Yrotation
            End Site
            {
              OFFSET 1 0 0
            }
          }
        }
      }
      JOINT rCollar
      {
        OFFSET -2.68224 19.2634 -4.8768
        CHANNELS 3 Zrotation Xrotation Yrotation
        JOINT rShldr
        {
          OFFSET -8.77824 -1.95073 1.46304
          CHANNELS 3 Zrotation Xrotation Yrotation
          JOINT rForeArm
          {
            OFFSET -28.1742 -1.7115 0.48768
            CHANNELS 3 Zrotation Xrotation Yrotation
            JOINT rHand
            {
              OFFSET -22.5879 0.773209 7.07136
              CHANNELS 3 Zrotation Xrotation Yrotation
              JOINT rThumb1
              {
                OFFSET -1.2192 -0.487915 3.41376
                CHANNELS 3 Zrotation Xrotation Yrotation
                JOINT rThumb2
                {
                  OFFSET -3.37035 -0.52449 3.41376
                  CHANNELS 3 Zrotation Xrotation Yrotation
                  End Site
                  {
                    OFFSET -1.78271 -1.18214 1.43049
                  }
                }
              }
              JOINT rIndex1
              {
                OFFSET -7.75947 0.938293 5.60832
                CHANNELS 3 Zrotation Xrotation Yrotation
                JOINT rIndex2
                {
                  OFFSET -2.54057 -0.884171 1.56538
                  CHANNELS 3 Zrotation Xrotation Yrotation
                  End Site
                  {
                    OFFSET -1.62519 -0.234802 1.16502
                  }
                }
              }
              JOINT rMid1
              {
                OFFSET -8.24714 1.18213 3.41376
                CHANNELS 3 Zrotation Xrotation Yrotation
                JOINT rMid2
                {
                  OFFSET -3.10165 -0.590103 1.0647
                  CHANNELS 3 Zrotation Xrotation Yrotation
                  End Site
                  {
                    OFFSET -2.48547 -0.328903 0.83742
                  }
                }
              }
              JOINT rRing1
              {
                OFFSET -8.82822 0.546677 1.51678
                CHANNELS 3 Zrotation Xrotation Yrotation
                JOINT rRing2
                {
                  OFFSET -2.60934 -0.819778 -0.0198488
                  CHANNELS 3 Zrotation Xrotation Yrotation
                  End Site
                  {
                    OFFSET -2.33842 -0.294052 0.168128
                  }
                }
              }
              JOINT rPinky1
              {
                OFFSET -8.27202 -0.0477905 -0.4584
                CHANNELS 3 Zrotation Xrotation Yrotation
                JOINT rPinky2
                {
                  OFFSET -1.82734 -0.647385 -0.700984
                  CHANNELS 3 Zrotation Xrotation Yrotation
                  End Site
                  {
                    OFFSET -1.69225 -0.51767 -0.607171
                  }
                }
              }
            }
          }
        }
      }
      JOINT lCollar
      {
        OFFSET 2.68224 19.2634 -4.8768
        CHANNELS 3 Zrotation Xrotation Yrotation
        JOINT lShldr
        {
          OFFSET 8.77824 -1.95073 1.46304
          CHANNELS 3 Zrotation Xrotation Yrotation
          JOINT lForeArm
          {
            OFFSET 28.1742 -1.7115 0.48768
            CHANNELS 3 Zrotation Xrotation Yrotation
            JOINT lHand
            {
              OFFSET 22.5879 0.773209 7.07136
              CHANNELS 3 Zrotation Xrotation Yrotation
              JOINT lThumb1
              {
                OFFSET 1.2192 -0.487915 3.41376
                CHANNELS 3 Zrotation Xrotation Yrotation
                JOINT lThumb2
                {
                  OFFSET 3.37035 -0.52449 3.41376
                  CHANNELS 3 Zrotation Xrotation Yrotation
                  End Site
                  {
                    OFFSET 1.78271 -1.18214 1.43049
                  }
                }
              }
              JOINT lIndex1
              {
                OFFSET 7.75947 0.938293 5.60832
                CHANNELS 3 Zrotation Xrotation Yrotation
                JOINT lIndex2
                {
                  OFFSET 2.54057 -0.884171 1.56538
                  CHANNELS 3 Zrotation Xrotation Yrotation
                  End Site
                  {
                    OFFSET 1.62519 -0.234802 1.16502
                  }
                }
              }
              JOINT lMid1
              {
                OFFSET 8.24714 1.18213 3.41376
                CHANNELS 3 Zrotation Xrotation Yrotation
                JOINT lMid2
                {
                  OFFSET 3.10165 -0.590103 1.0647
                  CHANNELS 3 Zrotation Xrotation Yrotation
                  End Site
                  {
                    OFFSET 2.48547 -0.328903 0.83742
                  }
                }
              }
              JOINT lRing1
              {
                OFFSET 8.82822 0.546677 1.51678
                CHANNELS 3 Zrotation Xrotation Yrotation
                JOINT lRing2
                {
                  OFFSET 2.60934 -0.819778 -0.0198488
                  CHANNELS 3 Zrotation Xrotation Yrotation
                  End Site
                  {
                    OFFSET 2.33842 -0.294052 0.168128
                  }
                }
              }
              JOINT lPinky1
              {
                OFFSET 8.27202 -0.0477905 -0.4584
                CHANNELS 3 Zrotation Xrotation Yrotation
                JOINT lPinky2
                {
                  OFFSET 1.82734 -0.647385 -0.700984
                  CHANNELS 3 Zrotation Xrotation Yrotation
                  End Site
                  {
                    OFFSET 1.69225 -0.51767 -0.607171
                  }
                }
              }
            }
          }
        }
      }
    }
  }
  JOINT rButtock
  {
    OFFSET -8.77824 4.35084 1.2192
    CHANNELS 3 Zrotation Xrotation Yrotation
    JOINT rThigh
    {
      OFFSET 0 -1.70687 -2.19456
      CHANNELS 3 Zrotation Xrotation Yrotation
      JOINT rShin
      {
        OFFSET 0 -36.8199 0.73152
        CHANNELS 3 Zrotation Xrotation Yrotation
        JOINT rFoot
        {
          OFFSET 0.73152 -45.1104 -5.12064
          CHANNELS 3 Zrotation Xrotation Yrotation
          End Site
          {
            OFFSET -1.1221 -3.69964 12.103
          }
        }
      }
    }
  }
  JOINT lButtock
  {
    OFFSET 8.77824 4.35084 1.2192
    CHANNELS 3 Zrotation Xrotation Yrotation
    JOINT lThigh
    {
      OFFSET 0 -1.70687 -2.19456
      CHANNELS 3 Zrotation Xrotation Yrotation
      JOINT lShin
      {
        OFFSET 0 -36.8199 0.73152
        CHANNELS 3 Zrotation Xrotation Yrotation
        JOINT lFoot
        {
          OFFSET -0.73152 -45.1104 -5.12064
          CHANNELS 3 Zrotation Xrotation Yrotation
          End Site
          {
            OFFSET 1.1221 -3.69964 12.103
          }
        }
      }
    }
  }
}
MOTION
Frames:	6
Frame Time:	0.00833333
-59.86 84.2385 14.2064 -140.807 -86.4839 148.525 4.94277 -2.97282 6.93762 4.56387 -15.7901 2.53951 -3.22913 -5.36079 -2.86021 -4.45435 12.1994 -4.93706 -0.0 0.0 0.0 -0.0 0.0 0.0 4.39115e-14 5.99968e-13 -3.35566e-14 49.937 38.9981 13.8536 -21.6112 -15.1849 42.7485 -0.480936 19.3256 2.82503 -1.01262e-09 1.12668e-09 7.23183e-10 -1.73739e-09 1.94762e-09 1.26134e-09 -1.01262e-09 1.12668e-09 7.23172e-10 7.73091 5.47488 0.417314 -1.01262e-09 1.12668e-09 7.23182e-10 2.90554 0.965183 0.102902 -1.01262e-09 1.12668e-09 7.23179e-10 10.2786 0.731801 0.0259123 -1.01262e-09 1.12668e-09 7.2319e-10 2.22167 -0.733487 -0.20892 4.38559e-14 5.99982e-13 -3.36738e-14 -80.8144 9.42721 22.9149 15.7952 -8.49455 -29.2513 0.0757764 7.81364 -1.10509 1.12634e-09 -1.62146e-09 8.84223e-10 1.95616e-09 -2.81981e-09 1.52184e-09 1.12634e-09 -1.62147e-09 8.84235e-10 -7.73091 5.47488 -0.417314 1.12634e-09 -1.62147e-09 8.84227e-10 -2.90554 0.965183 -0.102902 1.12634e-09 -1.62147e-09 8.84221e-10 -10.2786 0.731801 -0.0259123 1.12635e-09 -1.62147e-09 8.84206e-10 -2.22167 -0.733487 0.20892 -2.03217e-16 0.0 -3.88251e-19 7.10119 -0.597839 1.27064 0.0355477 17.1576 0.598304 -10.5982 -25.4043 -22.9757 2.03217e-16 0.0 3.88251e-19 -7.6082 -20.0454 -20.9992 0.0719458 19.5838 -0.805278 -0.438736 -12.7584 -4.0645
-59.1132 84.0665 13.7996 -150.927 -85.9117 158.764 5.17094 -2.9125 7.09448 4.51027 -15.7011 2.57076 -3.05378 -5.54678 -2.58551 -4.72243 12.6364 -4.42595 -0.0 0.0 0.0 -0.0 0.0 0.0 7.71653e-14 7.77438e-13 -2.61899e-14 50.502 39.8012 13.4614 -21.4105 -14.8964 42.225 -0.465472 19.0237 2.77748 -1.31725e-09 1.36183e-09 7.38398e-10 -2.26302e-09 2.35497e-09 1.29216e-09 -1.31724e-09 1.36183e-09 7.38385e-10 7.73091 5.47488 0.417314 -1.31725e-09 1.36183e-09 7.38398e-10 2.90554 0.965183 0.102902 -1.31724e-09 1.36183e-09 7.38394e-10 10.2786 0.731801 0.0259123 -1.31725e-09 1.36183e-09 7.38404e-10 2.22167 -0.733487 -0.20892 7.70965e-14 7.77456e-13 -2.62893e-14 -81.1298 9.75786 22.6167 16.1273 -8.80604 -29.9418 0.0601166 6.97926 -0.985801 8.9593e-10 -1.77678e-09 9.14626e-10 1.55804e-09 -3.0853e-09 1.57689e-09 8.95929e-10 -1.77678e-09 9.14635e-10 -7.73091 5.47488 -0.417314 8.95933e-10 -1.77678e-09 9.14629e-10 -2.90554 0.965183 -0.102902 8.95928e-10 -1.77678e-09 9.14623e-10 -10.2786 0.731801 -0.0259123 8.9594e-10 -1.77678e-09 9.14604e-10 -2.22167 -0.733487 0.20892 -2.03217e-16 0.0 -3.88251e-19 7.96206 0.0366341 3.47286 0.0157036 15.3734 0.533356 -11.8646 -28.4686 -23.868 2.03217e-16 0.0 3.88251e-19 -7.28573 -20.8905 -20.6359 0.0744586 20.2321 -0.832728 -0.558384 -13.2159 -4.33119
-58.3022 83.9167 13.3096 -156.396 -85.1567 164.375 5.51396 -2.94096 7.40094 4.23273 -15.6632 2.6113 -2.7453 -5.53976 -2.35888 -4.91586 12.8752 -4.07774 -0.0 0.0 0.0 -0.0 0.0 0.0 8.80726e-14 7.21619e-13 -9.08624e-15 51.3949 40.3611 12.8848 -21.2048 -14.6079 41.6881 -0.455348 18.8209 2.74566 -1.06151e-09 1.12641e-09 6.02946e-10 -1.823e-09 1.94804e-09 1.05502e-09 -1.0615e-09 1.12641e-09 6.0293e-10 7.73091 5.47488 0.417314 -1.06151e-09 1.12641e-09 6.02947e-10 2.90554 0.965183 0.102902 -1.0615e-09 1.12641e-09 6.02942e-10 10.2786 0.731801 0.0259123 -1.06151e-09 1.12641e-09 6.02952e-10 2.22167 -0.733487 -0.20892 8.80066e-14 7.21636e-13 -9.18991e-15 -81.3061 10.5706 22.3948 16.5334 -9.19869 -30.7915 0.0452919 6.0918 -0.859416 5.37323e-10 -1.43795e-09 6.87398e-10 9.3657e-10 -2.49552e-09 1.18619e-09 5.37323e-10 -1.43795e-09 6.87409e-10 -7.73091 5.47488 -0.417314 5.37328e-10 -1.43796e-09 6.87399e-10 -2.90554 0.965183 -0.102902 5.37321e-10 -1.43795e-09 6.87396e-10 -10.2786 0.731801 -0.0259123 5.37332e-10 -1.43796e-09 6.87377e-10 -2.22167 -0.733487 0.20892 -2.03217e-16 0.0 -3.88251e-19 8.88523 0.197261 5.31764 0.00851957 14.1112 0.472652 -13.248 -30.4814 -25.4374 2.03217e-16 0.0 3.88251e-19 -6.76966 -21.8062 -20.3119 0.07654 20.7877 -0.862213 -0.675416 -13.7276 -4.52874
-57.4601 83.812 12.7841 -158.881 -84.3933 166.993 5.92037 -3.02313 7.81189 3.80926 -15.6587 2.65966 -2.33923 -5.41627 -2.15892 -5.05861 12.9907 -3.8298 -0.0 0.0 0.0 -0.0 0.0 0.0 8.69982e-14 5.32987e-13 1.38435e-14 52.4521 40.7376 12.2503 -20.9882 -14.3099 41.1288 -0.449048 18.696 2.72607 -4.409e-10 5.87181e-10 3.75049e-10 -7.54066e-10 1.01542e-09 6.53151e-10 -4.40898e-10 5.8718e-10 3.75027e-10 7.73091 5.47488 0.417314 -4.409e-10 5.8718e-10 3.75049e-10 2.90554 0.965183 0.102902 -4.40898e-10 5.87179e-10 3.75044e-10 10.2786 0.731801 0.0259123 -4.40905e-10 5.87179e-10 3.75054e-10 2.22167 -0.733487 -0.20892 8.6944e-14 5.33001e-13 1.37224e-14 -81.3772 11.7369 22.204 16.9875 -9.64674 -31.7651 0.0321038 5.17901 -0.729817 7.46037e-11 -8.1262e-10 2.63711e-10 1.33676e-10 -1.40953e-09 4.55732e-10 7.46039e-11 -8.12617e-10 2.63723e-10 -7.73091 5.47488 -0.417314 7.46128e-11 -8.12626e-10 2.63707e-10 -2.90554 0.965183 -0.102902 7.46022e-11 -8.12618e-10 2.6371e-10 -10.2786 0.731801 -0.0259123 7.46118e-11 -8.12619e-10 2.63695e-10 -2.22167 -0.733487 0.20892 -2.03217e-16 0.0 -3.88251e-19 9.91713 0.0252071 7.03515 0.0091582 13.1068 0.411971 -14.9146 -31.9873 -27.592 2.03217e-16 0.0 3.88251e-19 -6.1108 -22.7871 -20.0183 0.0780945 21.279 -0.89242 -0.79799 -14.3036 -4.68985
-56.5468 83.7064 12.2206 -160.231 -83.6264 168.556 6.30131 -3.10996 8.22976 3.34505 -15.6721 2.70432 -1.90093 -5.22871 -1.96923 -5.154 13.0051 -3.62016 -0.0 0.0 0.0 -0.0 0.0 0.0 8.55742e-14 1.90532e-13 4.01137e-14 53.571 41.0205 11.5751 -20.7807 -14.0283 40.6037 -0.444127 18.6004 2.71103 1.98596e-10 3.18115e-11 1.29709e-10 3.47175e-10 5.48016e-11 2.20772e-10 1.98598e-10 3.18122e-11 1.29682e-10 7.73091 5.47488 0.417314 1.98596e-10 3.18122e-11 1.2971e-10 2.90554 0.965183 0.102902 1.98597e-10 3.18114e-11 1.29705e-10 10.2786 0.731801 0.0259123 1.9859e-10 3.18099e-11 1.29714e-10 2.22167 -0.733487 -0.20892 8.55353e-14 1.90543e-13 3.99736e-14 -81.39 13.0435 22.0409 17.435 -10.0974 -32.7513 0.0219473 4.30066 -0.6055 -3.64806e-10 -1.40457e-10 -1.48957e-10 -6.29015e-10 -2.427e-10 -2.55842e-10 -3.64805e-10 -1.40451e-10 -1.48942e-10 -7.73091 5.47488 -0.417314 -3.64793e-10 -1.40465e-10 -1.48965e-10 -2.90554 0.965183 -0.102902 -3.64807e-10 -1.40452e-10 -1.48955e-10 -10.2786 0.731801 -0.0259123 -3.64799e-10 -1.40453e-10 -1.48967e-10 -2.22167 -0.733487 0.20892 -2.03217e-16 0.0 -3.88251e-19 11.0016 -0.224435 8.8274 0.012578 12.2266 0.342982 -16.7196 -33.2281 -29.9408 2.03217e-16 0.0 3.88251e-19 -5.40702 -23.7438 -19.7979 0.0793637 21.689 -0.919445 -0.911313 -14.9323 -4.80322
-55.6045 83.6197 11.6494 -161.389 -82.8655 170.007 6.56609 -3.15279 8.55686 2.94527 -15.6876 2.73378 -1.49511 -5.0295 -1.77333 -5.20644 12.9402 -3.38664 -0.0 0.0 0.0 -0.0 0.0 0.0 9.54329e-14 -3.26757e-13 6.72389e-14 54.6534 41.3006 10.8741 -20.6046 -13.7916 40.1685 -0.438298 18.4852 2.69297 5.11003e-10 -2.52034e-10 -5.80674e-11 8.84135e-10 -4.36099e-10 -1.07894e-10 5.11006e-10 -2.52032e-10 -5.8096e-11 7.73091 5.47488 0.417314 5.11003e-10 -2.52032e-10 -5.80674e-11 2.90554 0.965183 0.102902 5.11002e-10 -2.52033e-10 -5.80722e-11 10.2786 0.731801 0.0259123 5.10996e-10 -2.52035e-10 -5.80642e-11 2.22167 -0.733487 -0.20892 9.54066e-14 -3.26748e-13 6.70898e-14 -81.3941 14.2756 21.8961 17.8287 -10.5038 -33.6372 0.0151901 3.5165 -0.494839 -6.53483e-10 3.38856e-10 -3.43125e-10 -1.12987e-09 5.89614e-10 -5.8989e-10 -6.53482e-10 3.38863e-10 -3.43109e-10 -7.73091 5.47488 -0.417314 -6.53469e-10 3.38848e-10 -3.43134e-10 -2.90554 0.965183 -0.102902 -6.53484e-10 3.38863e-10 -3.43122e-10 -10.2786 0.731801 -0.0259123 -6.53477e-10 3.38862e-10 -3.43131e-10 -2.22167 -0.733487 0.20892 -2.03217e-16 0.0 -3.88251e-19 12.0534 -0.29964 10.8961 0.0126381 11.3368 0.257691 -18.5052 -34.4821 -32.1048 2.03217e-16 0.0 3.88251e-19 -4.76061 -24.5853 -19.6935 0.0804513 22.0003 -0.93933 -0.999713 -15.6025 -4.8573
